<svg width="17" height="19" viewBox="0 0 17 19" fill="none" xmlns="http://www.w3.org/2000/svg">
<path d="M11.9415 0.589379C12.3122 0.431406 12.7093 0.350098 13.1104 0.350098C13.5115 0.350098 13.9087 0.431406 14.2793 0.589379C14.6499 0.747353 14.9866 0.978898 15.2702 1.27079C15.5539 1.56268 15.7789 1.90921 15.9324 2.2906C16.0858 2.67198 16.1648 3.08074 16.1648 3.49354C16.1648 3.90633 16.0858 4.3151 15.9324 4.69648C15.7789 5.07786 15.5539 5.42439 15.2702 5.71628L14.8266 6.17283L10.5071 1.72734L10.9506 1.27079C11.2343 0.978898 11.571 0.747353 11.9415 0.589379Z" fill="black"/>
<path d="M9.66777 3.67725L1.33554 12.7569C1.23621 12.8651 1.16452 12.9998 1.12756 13.1474L0.0284593 17.539C-0.0477535 17.8435 0.0316154 18.1692 0.236434 18.3923C0.441253 18.6156 0.740115 18.702 1.01956 18.619L5.04962 17.4213C5.18514 17.381 5.30867 17.3029 5.40799 17.1946L13.7402 8.11504L9.66777 3.67725Z" fill="black"/>
</svg>
