<svg width="20" height="20" viewBox="0 0 20 20" fill="none" xmlns="http://www.w3.org/2000/svg">
    <rect width="20" height="20" rx="10" fill="#5B29DE" />
    <path fill-rule="evenodd" clip-rule="evenodd"
        d="M5.60419 11.6441C5.61429 11.5794 5.64476 11.5195 5.69118 11.4732L11.9091 5.25531C11.9669 5.19748 12.0454 5.16499 12.1272 5.16499C12.209 5.16499 12.2874 5.19748 12.3453 5.25531L14.7453 7.65536C14.803 7.71318 14.8353 7.7915 14.8353 7.87315C14.8353 7.9548 14.803 8.03312 14.7453 8.09095L8.5262 14.3095C8.47983 14.3557 8.41998 14.3859 8.35529 14.3958L5.52028 14.8314C5.47241 14.8388 5.42349 14.8347 5.37747 14.8197C5.33146 14.8046 5.28964 14.7789 5.25539 14.7446C5.22115 14.7104 5.19545 14.6686 5.18037 14.6226C5.1653 14.5765 5.16126 14.5276 5.1686 14.4798L5.60357 11.6454L5.60419 11.6441ZM6.19896 11.8379L5.84296 14.1577L8.16218 13.8011L14.0901 7.87315L12.1275 5.90993L6.19896 11.8379Z"
        fill="#F8F9FA" />
    <path fill-rule="evenodd" clip-rule="evenodd"
        d="M12.7164 9.41219L10.5342 7.23426L10.9704 6.79744L13.152 8.97537L12.7164 9.41219Z"
        fill="#F8F9FA" />
</svg>
